<svg width="437" height="467" viewBox="0 0 437 467" fill="none" xmlns="http://www.w3.org/2000/svg">
<rect y="35" width="437" height="431.464" rx="124.148" fill="url(#paint0_linear_3379_59)"/>
<path d="M200.997 406.591C192.776 406.591 185.482 404.47 179.117 400.226C173.018 395.983 170.1 389.618 170.366 381.131C170.896 366.28 171.957 349.837 173.548 331.802C175.405 313.768 177.526 295.469 179.913 276.904C182.3 258.074 184.687 240.04 187.074 222.802C189.726 205.563 192.113 190.181 194.234 176.655C189.461 176.125 184.819 175.727 180.311 175.462C175.802 175.197 171.692 175.064 167.979 175.064C156.84 175.064 146.762 176.125 137.745 178.247C128.993 180.368 121.567 184.081 115.467 189.385C115.467 172.677 116.793 159.152 119.446 148.809C122.363 138.2 127.534 130.509 134.96 125.735C142.651 120.962 153.79 118.575 168.377 118.575C178.985 118.575 190.787 119.503 203.782 121.359C217.042 122.951 230.435 124.675 243.961 126.531C257.487 128.388 270.084 129.316 281.753 129.316C291.301 129.316 299.787 128.388 307.213 126.531C314.904 124.675 320.739 121.359 324.717 116.586C330.552 118.442 335.06 122.553 338.243 128.918C341.425 135.018 343.016 141.781 343.016 149.206C343.016 155.837 341.558 162.334 338.64 168.699C335.723 174.799 331.082 179.971 324.717 184.214C318.352 188.192 309.733 190.181 298.859 190.181C293.82 190.181 287.588 189.783 280.162 188.988C273.001 187.927 265.31 186.866 257.089 185.805C254.172 201.718 251.122 220.813 247.939 243.09C245.022 265.103 242.502 288.839 240.381 314.299C238.524 339.759 237.331 365.617 236.8 391.872C232.027 396.911 226.325 400.624 219.694 403.011C213.329 405.398 207.097 406.591 200.997 406.591Z" fill="#FFFDFD"/>
<defs>
<linearGradient id="paint0_linear_3379_59" x1="437" y1="382.441" x2="-8.4529e-07" y2="119.023" gradientUnits="userSpaceOnUse">
<stop offset="0.045" stop-color="#00FFFF"/>
<stop offset="0.565" stop-color="#009499"/>
</linearGradient>
</defs>
</svg>
